<?xml version="1.0" encoding="UTF-8"?>
<svg version="1.1" viewBox="0 0 2048 1579" width="1280" height="1280" xmlns="http://www.w3.org/2000/svg">
<path transform="translate(0)" d="m0 0h2048v1579h-2048z" fill="#FDFDFD"/>
<path transform="translate(786,386)" d="m0 0h16l20 2 25 5 21 7 25 12 11 7 14 10 10 9 8 7 12 13 14 19 12 21 8 19 6 20 4 20 1 9v9l8-7 77-77 11-9 17-12 27-14 27-9 17-4 15-2h38l26 4 26 8 20 9 16 9 14 10 10 8 13 12 10 11 14 19 11 19 7 16 7 21 4 17 3 23v27l-3 21-5 21-8 22-9 19-8 13-10 14-14 15-9 10-267 267-8 7-4 1-164-164v-2h-2v-2l-3-1v-2h-2l-3-3v-2h-2l-7-8-5-5 11-12 26-26h2l2-4 5-4 5-5 4 2 7 8 126 126 5-1 6-7 8-7 220-220 10-13 9-15 7-17 4-16 2-15v-18l-3-19-6-20-8-16-8-12-11-13-11-10-15-10-19-9-17-5-12-2-18-1-20 2-16 4-13 5-17 9-16 12-326 326 1 4 225 225 2 1-1 4-5 4-7 8-27 27-7 6-3 3-4-1-380-380-9-11-11-15-10-17-8-17-8-24-4-20-2-15v-32l3-22 6-23 6-16 10-21 10-16 11-14 9-10 64-64 14-11 11-8 22-12 20-8 20-6 24-4z" fill="#F02068"/>
<path transform="translate(786,459)" d="m0 0h17l21 3 18 6 16 8 11 7 11 9 11 11 11 15 8 16 5 12 5 21 1 9v19l-3 20-7 21-7 14-12 17-149 149-4-2-93-93-10-13-8-14-7-18-4-17-2-17v-9l3-21 4-15 6-15 8-14 10-13 66-66 13-10 19-10 21-7z" fill="#FDFDFD"/>
<path transform="translate(1322,477)" d="m0 0h5l14 11 15 14 9 10 14 19 11 19 7 16 7 21 4 17 3 23v27l-3 21-5 21-8 22-9 19-8 13-10 14-14 15-9 10-267 267-8 7-4 1-164-164v-2h-2v-2l-3-1v-2h-2l-3-3v-2h-2l-7-8-5-5 11-12 26-26h2l2-4 5-4 5-5 4 2 7 8 126 126 5-1 6-7 8-7 220-220 10-13 9-15 7-17 4-16 2-15v-18l-3-19-6-20-8-16-8-12-9-11-3-5-10-9-14-10-5-3-20-7-10-3-8-2 2-2h5v-2l-3-1h12l2 1h5l5 3v3h2l1-2v2h2v3h2v2h8l9 4 9 7 5 5 3 5 4 1v2h3v3l4 1v2l4 2v3l4 1 2 4 3 3v2h2l1 2v-3h-2l-1-4-2-1-1-5-4-1-6-7-6-5-6-8-4-2-9-9-6-1-1-2-3-1-1-3-3-2v-2h2v2l4-1 4 2v2l10 2 4 5 6 4 5 5 2 1 2 4 6 5 2 3 5 3 2 2h6l1-9 1-3-1-9 2-3h1v-4h-2l-1-9-3-3v-2-3h-2l-3-6-4-7v-2l-4-1-2-2 3-1 9 3 8 7v-3l-4-4-3-1v-3l-5-2-4-5z" fill="#F00C88"/>
<path transform="translate(786,386)" d="m0 0h16l20 2 25 5 21 7 25 12 6 4v2l-5-2-7-2h-1l3 4 1 4 7 3v2l2 1-4 1 4 5-3 6-3 1-4-1 2 1-1 6h2v2h2v5l4 2v3l-4-1v2l2 1-3 3h-7l-1-2-3 1 6 5 5 4 1 6h2l-1 3-9-6-3-1-1-3h-5l-3-3h-5l-3-3-6-1-1-2-6-1v-2h-4l-3-3-6 2v2l-5 1v-2l-10-1v-2h-7l-2 2 3 2-11-1-14-1-29 3v2l-21 7-19 10-16 13-64 64-11 16-8 16-4 10h-2l-2 12-3 16v35l3 20 3 7 1 5 1 2-1 2 2 1 2 5 2 6h-2l3 10 1 2v3l-2 3 2 5-3 4-1 10-2 5 3 2-1 3-5 1-3-2-1 2h-3l-1 2 1 5h2l1 3h-4l-3-5v-3l-6-2-3-4-4-2-2-3-5-1-2 2-4-6-3 1-5-10h-2l-2-6h-2v-4h-3l-2-6h-2l1 4-3-1-8-20-5-17-3-16-2-15v-32l3-22 6-23 6-16 10-21 10-16 11-14 9-10 64-64 14-11 11-8 22-12 20-8 20-6 24-4z" fill="#FD3650"/>
<path transform="translate(807,884)" d="m0 0 7 6 64 64 5 3 144 144 2 1-1 4-5 4-7 8-27 27-7 6-3 3-4-1-21-21-3-5-74-74v-2h-2v-2l-4-2-11-11-7-8-3-2v-2h-2v-2l-3-1v-2h-2l-7-8-8-7v-2h-2l-7-8-22-22 3-3h3l1 2 3 1-1 3h4v3l5 2v2l3 1v2h2l1 2 3 1v2l4 2 8 6 5 6 4 2-3-3v-2l-5-2v-3h2v2l6 1 1 3 2 1 4 5 4 1v3l4 1 1 3 7 3 5 4v2h3l1 2 5 1-2-2-7-6 1-4-3-3v-2l-3-1v-2h-3v-2h-2v-2h-2l-1-5-4-2 3-3 4-1h3l-1-6v-3l-1-3 5 2 3 1 2-4 10 7v-2l5 2 4 1-1-1-1-5h-2l-3-5 3-1-5-4-2-5h-2l-1-4-3-1-4-5-5-5-8-10-6-5-3-4v-2l-3-1v-2l-3-1v-2l-4-2v-2h-2v-2l-3-1-5-6-5-5-3-4-6-6-5-6-3-1z" fill="#F00C88"/>
<path transform="translate(919,833)" d="m0 0 2 1-1 2h5l3-3 7 1 3 1 4 6 6 5 1 3 4 3v2h2v5l3 3v2h2l5 6v2h2l1 4 3 1-1 2-4-2 1 2 2 1 6 7 1 3 3 1 4 5-4 4-2-4-2-1 2 5 1 4-1-2-5-2-1-3h-2l-3-5h-5l-2 2 2 5-2 4-1 4-4 1 1 5 4 1 3 3 3 7 3 2v2l2 1 1 5-5 2-9-6v-2h-2v-2l-4-2-2-2-4-2-4-4-1-5-3-1-3-3v-2l-4-1 1 5 4 2 1 6h3l1 3-4-1-2-1-2-3-7-5v-3l-4-2-11-9-5-4h-2v-4l-4-4-6-5-1-7 2-1v-2h-2v-2l-2-1-5 5-4 5h-3l3-5 34-34h2z" fill="#F02068"/>
<path transform="translate(902,898)" d="m0 0 5 3v2l4 2 4 4v2h2v2l3 1v2h2l5 5v2h2l7 8 133 133-4-1-163-163z" fill="#F02168"/>
<path transform="translate(596,771)" d="m0 0 2 1v2l3 1v2l3 1 7 8 47 47h-3l-59-59z" fill="#F72C5B"/>
<path transform="translate(565,718)" d="m0 0 2 4v3h3v4h2v3l-2 1 9 15 8 11-3 1-14-21-8-15 1-5z" fill="#F22463"/>
<path transform="translate(915,837)" d="m0 0v3l-1 2h-2l1 3-4 2-1 3-4 3-4-1zm-16 16m-1 1m-1 1m-1 1m-1 1m-1 1m-1 1m-1 1m-1 1m-1 1v3l-7 8-2 4-3-1 3-5 5-5z" fill="#F01A72"/>
<path transform="translate(1333,604)" d="m0 0 2 3 3 5 3 3-1 7h-2l2 13-1 14h-1l-2-26-3-15z" fill="#F02069"/>
<path transform="translate(569,733)" d="m0 0 4 5 6 10 8 11-3 1-14-21z" fill="#F82E58"/>
<path transform="translate(859,475)" d="m0 0h3v2l4 1 4 3 3 1 4 6-4-1-10-7-4-4z" fill="#F93057"/>
<path transform="translate(788,959)" d="m0 0 5 1 5 5 1 2-3 4-3-5-3-3v-2l-3 1-1-2z" fill="#F10C89"/>
<path transform="translate(966,877)" d="m0 0 4 1 5 3 2 4-6-2-4-3z" fill="#F0147B"/>
<path transform="translate(889,411)" d="m0 0 5 2 5 3v2l-5-2-7-2 2-1z" fill="#F82E59"/>
</svg>
