<?xml version="1.0" encoding="UTF-8"?>
<svg version="1.1" xmlns="http://www.w3.org/2000/svg" width="607" height="468">
<path d="M0 0 C0.70382812 0.43957031 1.40765625 0.87914063 2.1328125 1.33203125 C13.15818931 8.83361116 19.74244792 20.41190816 24.375 32.625 C25.2059569 37.11216727 25.16473798 41.45140128 25 46 C25.66 46 26.32 46 27 46 C27 45.34 27 44.68 27 44 C27.66 44 28.32 44 29 44 C29.37125 43.071875 29.37125 43.071875 29.75 42.125 C31.20628639 39.64931313 32.37812506 39.04874998 35 38 C35 37.34 35 36.68 35 36 C35.66 36 36.32 36 37 36 C37.37125 35.071875 37.37125 35.071875 37.75 34.125 C39.23740369 31.59641373 40.43678009 31.28160996 43 30 C43.28488281 29.40703125 43.56976563 28.8140625 43.86328125 28.203125 C48.81717 18.60177361 61.91295 11.65679345 71.92919922 8.36621094 C89.11634342 3.59615252 104.86147867 5.64876041 120.53125 13.84765625 C134.48354249 22.06062484 143.22991049 34.78492247 148 50 C148.98681866 53.994266 149.62500765 57.90484542 150 62 C150.07089844 62.7425 150.14179688 63.485 150.21484375 64.25 C150.9352767 79.92662093 144.02252548 94.51398395 134.48046875 106.5234375 C133 108 133 108 131 108 C131 108.66 131 109.32 131 110 C130.34 110 129.68 110 129 110 C128.62875 110.86625 128.62875 110.86625 128.25 111.75 C126.81700012 114.32939979 125.21575324 116.06121592 123 118 C122.34 118 121.68 118 121 118 C121 118.66 121 119.32 121 120 C119.125 122.125 119.125 122.125 117 124 C116.34 124 115.68 124 115 124 C115 124.66 115 125.32 115 126 C113.5390625 127.40234375 113.5390625 127.40234375 111.625 128.9375 C109.16098476 130.91986617 107.79533563 132.30699655 106 135 C105.34 135 104.68 135 104 135 C104 135.66 104 136.32 104 137 C103.34 137 102.68 137 102 137 C101.34 138.32 100.68 139.64 100 141 C99.34 141 98.68 141 98 141 C98 141.66 98 142.32 98 143 C97.34 143 96.68 143 96 143 C96 143.66 96 144.32 96 145 C94.35648543 146.36176922 92.68477344 147.68962066 91 149 C88.29046625 151.58350893 86.07904656 153.88143016 84 157 C83.34 157 82.68 157 82 157 C82 157.66 82 158.32 82 159 C80.625 160.625 80.625 160.625 79 162 C78.34 162 77.68 162 77 162 C77 162.66 77 163.32 77 164 C75.125 166.125 75.125 166.125 73 168 C72.34 168 71.68 168 71 168 C71 168.66 71 169.32 71 170 C70.34 170 69.68 170 69 170 C69 170.66 69 171.32 69 172 C68.34 172 67.68 172 67 172 C66.34 173.32 65.68 174.64 65 176 C64.34 176 63.68 176 63 176 C63 176.66 63 177.32 63 178 C62.34 178 61.68 178 61 178 C61 178.66 61 179.32 61 180 C59.125 182.125 59.125 182.125 57 184 C56.34 184 55.68 184 55 184 C55 184.66 55 185.32 55 186 C53.57421875 187.54296875 53.57421875 187.54296875 51.6875 189.1875 C51.07261719 189.73792969 50.45773437 190.28835938 49.82421875 190.85546875 C49.22222656 191.23316406 48.62023437 191.61085938 48 192 C47.01 191.67 46.02 191.34 45 191 C45 190.34 45 189.68 45 189 C44.34 189 43.68 189 43 189 C41.64613064 187.34997172 40.31321858 185.6825613 39 184 C38.34 183.67 37.68 183.34 37 183 C37 182.34 37 181.68 37 181 C36.34 181 35.68 181 35 181 C33.63823078 179.35648543 32.31037934 177.68477344 31 176 C29.34735453 174.31701337 27.67964149 172.65566801 26 171 C24.73897116 169.74068437 23.47887964 168.48042978 22.21948242 167.21948242 C21.51913376 166.51913376 20.8187851 165.8187851 20.09721375 165.09721375 C10.3981425 155.3981425 0.69907125 145.69907125 -9 136 C-7.43622501 132.67697814 -5.78646849 130.43815993 -3 128 C-2.34 128 -1.68 128 -1 128 C-0.67 127.01 -0.34 126.02 0 125 C0.66 125 1.32 125 2 125 C2.268125 124.360625 2.53625 123.72125 2.8125 123.0625 C4 121 4 121 7 120 C9.1875 121.3125 9.1875 121.3125 11 123 C11 123.66 11 124.32 11 125 C11.66 125 12.32 125 13 125 C13 125.66 13 126.32 13 127 C14.98 127.99 14.98 127.99 17 129 C17 129.66 17 130.32 17 131 C17.66 131 18.32 131 19 131 C19 131.66 19 132.32 19 133 C20.32 133.66 21.64 134.32 23 135 C23 135.66 23 136.32 23 137 C23.66 137 24.32 137 25 137 C25 137.66 25 138.32 25 139 C25.66 139 26.32 139 27 139 C31.25101336 142.8645576 34.93922853 147.27915373 38.71875 151.59765625 C40.9965311 153.99634697 43.38892677 155.97641825 46 158 C46.66 158.66 47.32 159.32 48 160 C57.17149845 150.96796998 66.32639378 141.91946549 75.46087837 132.84999466 C79.70362576 128.63846211 83.95172938 124.43265333 88.21289062 120.23974609 C92.3305491 116.18762815 96.43306272 112.12071725 100.52581406 108.0434494 C102.08413306 106.49615436 103.64769431 104.95411923 105.21670914 103.4176712 C116.01986653 92.82977063 126.0001246 83.04623105 126.3125 67 C126.33528241 56.4985765 123.30652071 47.65924929 116 40 C107.79267041 32.64516289 98.98450247 29.51836978 88 29 C75.05698906 30.27356858 66.69763834 36.81592084 57.84985352 45.84130859 C57.09097336 46.60296326 56.3320932 47.36461792 55.55021667 48.14935303 C53.06949986 50.64225346 50.59939283 53.14540239 48.12890625 55.6484375 C46.3985866 57.38944201 44.66744882 59.12963377 42.93553162 60.86904907 C38.39758393 65.42969638 33.86788037 69.99843226 29.34075928 74.56982422 C22.07184678 81.90915984 14.7951866 89.24074673 7.50950432 96.5634346 C4.96457983 99.12511137 2.42613885 101.69309246 -0.11192322 104.26156616 C-1.65956008 105.81965574 -3.2074437 107.37750028 -4.75561523 108.93505859 C-5.46364288 109.65498993 -6.17167053 110.37492126 -6.90115356 111.1166687 C-7.54720047 111.76430176 -8.19324738 112.41193481 -8.85887146 113.07919312 C-9.42053733 113.64659903 -9.9822032 114.21400494 -10.56088924 114.79860497 C-12 116 -12 116 -14 116 C-14 116.66 -14 117.32 -14 118 C-14.66 118 -15.32 118 -16 118 C-16.20367187 118.53109375 -16.40734375 119.0621875 -16.6171875 119.609375 C-18.59505609 123.02874104 -21.30326899 125.51337921 -24.125 128.25 C-24.68832031 128.80429688 -25.25164062 129.35859375 -25.83203125 129.9296875 C-27.21686028 131.29104485 -28.60783204 132.64614859 -30 134 C-28.35099981 138.29423654 -25.10510643 141.12439801 -21.88208008 144.265625 C-21.25595322 144.88401245 -20.62982635 145.5023999 -19.98472595 146.13952637 C-18.62706634 147.47955188 -17.26721527 148.81735992 -15.90543556 150.15319824 C-13.75326471 152.26596875 -11.60868355 154.38616569 -9.4662323 156.50878906 C-3.37489552 162.54204864 2.72602148 168.56548166 8.84155273 174.57421875 C12.58267491 178.25106195 16.31164123 181.93986349 20.03310585 185.63659668 C21.45552312 187.04471585 22.88260533 188.44813838 24.31432152 189.84680176 C26.31110935 191.79810616 28.29214903 193.76416954 30.27026367 195.734375 C30.86916412 196.31215698 31.46806458 196.88993896 32.08511353 197.48522949 C33.70402527 199.11621094 33.70402527 199.11621094 36 202 C35.54045727 205.83195913 33.78337904 207.59308376 31.0625 210.25 C30.35222656 210.95640625 29.64195312 211.6628125 28.91015625 212.390625 C27 214 27 214 25 214 C24.71125 214.639375 24.4225 215.27875 24.125 215.9375 C23 218 23 218 21 219 C14.50284957 213.50927336 8.46332482 207.61210058 2.453125 201.59838867 C1.41767218 200.56593418 0.38201678 199.53368284 -0.65382385 198.50161743 C-3.44286628 195.7213405 -6.22872284 192.93789309 -9.01370621 190.15355086 C-10.75462175 188.4133489 -12.49624851 186.67386202 -14.23812866 184.93462563 C-20.31605815 178.86591755 -26.39142977 172.79466252 -32.46435547 166.72094727 C-38.12667945 161.05802002 -43.79458572 155.4007223 -49.46507454 149.74597186 C-54.33924188 144.88485199 -59.20957477 140.0199132 -64.07690239 135.15194494 C-66.98193613 132.24665583 -69.88851337 129.34295248 -72.7989502 126.44307518 C-75.52844969 123.72321217 -78.25316664 120.99864975 -80.97419548 118.27031326 C-81.97546143 117.26799662 -82.97845335 116.26740088 -83.98324776 115.26862144 C-85.34930069 113.91022154 -86.70866779 112.54510779 -88.06762695 111.17961121 C-88.83154251 110.41624042 -89.59545807 109.65286963 -90.38252258 108.86636639 C-92 107 -92 107 -92 105 C-92.59941406 104.74863281 -93.19882813 104.49726563 -93.81640625 104.23828125 C-101.35530045 99.96309438 -104.61445433 88.76647575 -107 81 C-111.34768294 63.39403643 -108.06324511 46.95318404 -98.91796875 31.4765625 C-98.61503906 30.98929688 -98.31210938 30.50203125 -98 30 C-97.34 30 -96.68 30 -96 30 C-95.6596875 28.9171875 -95.6596875 28.9171875 -95.3125 27.8125 C-93.73080282 24.42314891 -91.79885498 22.4575312 -89 20 C-88.01 19.67 -87.02 19.34 -86 19 C-86 18.34 -86 17.68 -86 17 C-84.625 15.375 -84.625 15.375 -83 14 C-82.34 14 -81.68 14 -81 14 C-80.7525 13.38125 -80.505 12.7625 -80.25 12.125 C-78.79371361 9.64931313 -77.62187494 9.04874998 -75 8 C-75 7.34 -75 6.68 -75 6 C-54.82227384 -13.69004698 -22.96957011 -14.94904809 0 0 Z M-42.75 13.0625 C-43.69359375 13.25972656 -44.6371875 13.45695312 -45.609375 13.66015625 C-54.99208938 17.36784177 -62.2179557 24.67158424 -69.25 31.6875 C-70.10851562 32.50927734 -70.96703125 33.33105469 -71.8515625 34.17773438 C-80.53949837 42.805523 -86.08546471 52.25743068 -86.25 64.625 C-86.05181272 82.01142917 -76.19643536 91.16292109 -64.52832031 102.78735352 C-62.73087346 104.5815924 -60.94730323 106.38891912 -59.1640625 108.19726562 C-58.02164275 109.34195422 -56.87844227 110.48586428 -55.734375 111.62890625 C-55.20309998 112.16939102 -54.67182495 112.70987579 -54.12445068 113.26673889 C-51.14234296 116.38913856 -51.14234296 116.38913856 -47 117 C-45.27056525 115.68732044 -45.27056525 115.68732044 -44 114 C-44 113.34 -44 112.68 -44 112 C-43.34 112 -42.68 112 -42 112 C-41.13375 110.9171875 -41.13375 110.9171875 -40.25 109.8125 C-38.21524655 107.26905819 -36.12718485 105.4438883 -33.60546875 103.4140625 C-31.89204018 101.9049113 -30.47322809 100.30662393 -29 98.5625 C-22.5897199 91.03113953 -15.31399307 84.2400389 -8.265625 77.3125 C-0.62524288 69.514041 3.49162697 61.371409 4.25 50.375 C4.10169643 41.64156777 1.1212346 33.96672454 -4 27 C-5.0828125 25.453125 -5.0828125 25.453125 -6.1875 23.875 C-12.53783053 16.63720092 -21.72556496 13.44437923 -31 12 C-35.0951343 11.81337279 -38.75384664 12.16066539 -42.75 13.0625 Z " fill="#F6246F" transform="translate(269,124)"/>
<path d="M0 0 C1.1875 1.6875 1.1875 1.6875 2 4 C0.39292439 7.66056112 -1.60001973 9.91614112 -5 12 C-5.66 12 -6.32 12 -7 12 C-7 12.66 -7 13.32 -7 14 C-7.66 14 -8.32 14 -9 14 C-9.33 14.99 -9.66 15.98 -10 17 C-10.66 17 -11.32 17 -12 17 C-12 17.66 -12 18.32 -12 19 C-12.66 19 -13.32 19 -14 19 C-14 19.66 -14 20.32 -14 21 C-14.66 21.66 -15.32 22.32 -16 23 C-16.96303511 24.14188449 -17.92090417 25.28813585 -18.875 26.4375 C-21.08544437 29.03770872 -23.27213877 30.95410408 -26 33 C-27.52207757 34.79505888 -28.99421874 36.61755349 -30.4375 38.4765625 C-32.27817573 40.27122134 -33.465355 40.70361006 -36 41 C-36.66 40.67 -37.32 40.34 -38 40 C-37.56817917 39.57262039 -37.13635834 39.14524078 -36.69145203 38.70491028 C-32.1919552 34.24971214 -27.69955491 29.78744867 -23.21118164 25.32104492 C-21.53590376 23.65581514 -19.85883396 21.99238606 -18.17993164 20.33081055 C-15.76493857 17.9401175 -13.35649557 15.54299084 -10.94921875 13.14453125 C-10.19912033 12.4047554 -9.44902191 11.66497955 -8.67619324 10.90278625 C-5.25727176 7.48460207 -2.20109769 4.36844771 0 0 Z " fill="#F4248D" transform="translate(391,208)"/>
<path d="M0 0 C0.66 1.32 1.32 2.64 2 4 C0.03617993 5.50559539 -1.78263366 6.89131683 -4 8 C-4 8.66 -4 9.32 -4 10 C-4.99 10 -5.98 10 -7 10 C-7 10.99 -7 11.98 -7 13 C-7.66 13 -8.32 13 -9 13 C-9 13.66 -9 14.32 -9 15 C-9.99 15 -10.98 15 -12 15 C-12.33 15.99 -12.66 16.98 -13 18 C-14.33984375 19.82421875 -14.33984375 19.82421875 -15.9375 21.6875 C-16.46214844 22.31011719 -16.98679687 22.93273437 -17.52734375 23.57421875 C-19 25 -19 25 -21 25 C-21.7115625 26.2375 -21.7115625 26.2375 -22.4375 27.5 C-23.2109375 28.7375 -23.2109375 28.7375 -24 30 C-24.99 30 -25.98 30 -27 30 C-27.33 30.99 -27.66 31.98 -28 33 C-29.96185416 34.71140469 -31.96302383 36.37873325 -34 38 C-34.66 38.66 -35.32 39.32 -36 40 C-35.48193976 35.98512111 -34.54606583 34.05078173 -31.67358398 31.21948242 C-30.9729332 30.51913376 -30.27228241 29.8187851 -29.55039978 29.09721375 C-28.4097683 27.98754997 -28.4097683 27.98754997 -27.24609375 26.85546875 C-26.08292381 25.7007885 -26.08292381 25.7007885 -24.89625549 24.52278137 C-22.41923636 22.06813879 -19.92866797 19.62777391 -17.4375 17.1875 C-15.75494764 15.52501077 -14.07329561 13.86160982 -12.39257812 12.19726562 C-8.27210448 8.12087647 -4.14042147 4.05612105 0 0 Z " fill="#F4228B" transform="translate(352,249)"/>
<path d="M0 0 C0.53109375 0.22816406 1.0621875 0.45632812 1.609375 0.69140625 C-3.390625 5.69140625 -3.390625 5.69140625 -5.828125 6.12890625 C-8.74137072 6.76839921 -9.38814253 7.60185933 -11.390625 9.69140625 C-13.453125 10.44140625 -13.453125 10.44140625 -15.390625 10.69140625 C-16.050625 10.36140625 -16.710625 10.03140625 -17.390625 9.69140625 C-17.720625 11.01140625 -18.050625 12.33140625 -18.390625 13.69140625 C-20.040625 14.02140625 -21.690625 14.35140625 -23.390625 14.69140625 C-23.390625 14.03140625 -23.390625 13.37140625 -23.390625 12.69140625 C-18.28008882 7.70438756 -7.20663497 -0.93026824 0 0 Z " fill="#F94352" transform="translate(217.390625,117.30859375)"/>
<path d="M0 0 C2.477175 0.38438922 3.7495611 0.75456988 5.5625 2.53125 C9.06067315 7.32222627 12.27603129 12.26929023 14 18 C13.67 18.66 13.34 19.32 13 20 C12.34 20 11.68 20 11 20 C10.75765625 19.40832031 10.5153125 18.81664062 10.265625 18.20703125 C8.3270729 13.63652189 6.50328842 9.61629773 3 6 C2.01 5.67 1.02 5.34 0 5 C0 3.35 0 1.7 0 0 Z " fill="#F5489B" transform="translate(401,150)"/>
<path d="M0 0 C0.99 0.33 1.98 0.66 3 1 C2.67 1.66 2.34 2.32 2 3 C1.34 3 0.68 3 0 3 C0 3.66 0 4.32 0 5 C-1.875 7.125 -1.875 7.125 -4 9 C-4.66 9 -5.32 9 -6 9 C-6 9.66 -6 10.32 -6 11 C-6.66 11 -7.32 11 -8 11 C-8 11.66 -8 12.32 -8 13 C-8.66 13 -9.32 13 -10 13 C-10.33 13.99 -10.66 14.98 -11 16 C-11.66 14.68 -12.32 13.36 -13 12 C-10.6875 9.5 -10.6875 9.5 -8 7 C-7.01 7 -6.02 7 -5 7 C-4.9175 6.401875 -4.835 5.80375 -4.75 5.1875 C-3.77590452 2.34638817 -2.59505753 1.45017921 0 0 Z " fill="#F444A3" transform="translate(346,283)"/>
<path d="M0 0 C0.66 0.33 1.32 0.66 2 1 C-0.33776505 5.20797709 -2.65850848 8.89812164 -7.125 11 C-9.49191761 12.26235606 -10.0222242 13.55556051 -11 16 C-11.99 16 -12.98 16 -14 16 C-12.55922954 12.63820226 -10.75249979 10.40843732 -8 8 C-7.34 8 -6.68 8 -6 8 C-5.67 7.01 -5.34 6.02 -5 5 C-4.34 5 -3.68 5 -3 5 C-2.690625 4.360625 -2.38125 3.72125 -2.0625 3.0625 C-1 1 -1 1 0 0 Z " fill="#F65594" transform="translate(274,244)"/>
<path d="M0 0 C2.35964273 0.40683495 3.85934088 0.89814339 5.8125 2.3125 C7 4 7 4 7.0625 5.875 C5.42577783 9.14844435 2.89214854 10.78473729 0 13 C-0.26218749 9.85375007 -0.24754367 8.38162983 1.5 5.6875 C1.995 5.130625 2.49 4.57375 3 4 C2.34 4 1.68 4 1 4 C0.67 2.68 0.34 1.36 0 0 Z " fill="#F44CA5" transform="translate(298,322)"/>
<path d="M0 0 C1.32 0 2.64 0 4 0 C4 0.66 4 1.32 4 2 C3.34 2 2.68 2 2 2 C1.773125 2.5775 1.54625 3.155 1.3125 3.75 C-0.33038023 6.5663661 -2.39533227 8.08077114 -5 10 C-5.125 7.125 -5.125 7.125 -5 4 C-4.34 3.34 -3.68 2.68 -3 2 C-2.01 2 -1.02 2 0 2 C0 1.34 0 0.68 0 0 Z " fill="#F54FAA" transform="translate(396,232)"/>
<path d="M0 0 C0.45375 0.474375 0.9075 0.94875 1.375 1.4375 C2.93258204 3.09027808 2.93258204 3.09027808 5 4 C5 4.66 5 5.32 5 6 C5.99 6.33 6.98 6.66 8 7 C7.34 8.32 6.68 9.64 6 11 C3.03 8.03 0.06 5.06 -3 2 C-2.01 1.34 -1.02 0.68 0 0 Z " fill="#F9698B" transform="translate(182,231)"/>
<path d="M0 0 C2 1 2 1 3 3 C2.34 3 1.68 3 1 3 C1 3.66 1 4.32 1 5 C1.66 5 2.32 5 3 5 C2.71905418 6.8141927 2.42493567 8.62635001 2.125 10.4375 C1.88136719 11.95150391 1.88136719 11.95150391 1.6328125 13.49609375 C1.42398437 14.32238281 1.21515625 15.14867187 1 16 C0.34 16.33 -0.32 16.66 -1 17 C-0.67 11.39 -0.34 5.78 0 0 Z " fill="#F20E7F" transform="translate(397,183)"/>
<path d="M0 0 C2.9375 1.3125 2.9375 1.3125 6 3 C6.33 3.99 6.66 4.98 7 6 C7.66 6.33 8.32 6.66 9 7 C8.67 7.99 8.34 8.98 8 10 C6.84481082 9.09515208 5.70114594 8.1755794 4.5625 7.25 C3.60537109 6.48429687 3.60537109 6.48429687 2.62890625 5.703125 C0.81189446 3.80332371 0.39576803 2.56413092 0 0 Z " fill="#F52E86" transform="translate(277,274)"/>
<path d="M0 0 C3.07563891 1.53781946 3.70322574 3.91244223 5 7 C4.67 7.99 4.34 8.98 4 10 C-1.57142857 4.85714286 -1.57142857 4.85714286 -2 1 C-1.34 0.67 -0.68 0.34 0 0 Z " fill="#F33F9A" transform="translate(272,320)"/>
<path d="M0 0 C6.13053511 -0.32712342 10.62669111 -0.39366878 16 3 C16 3.66 16 4.32 16 5 C10.72 3.68 5.44 2.36 0 1 C0 0.67 0 0.34 0 0 Z " fill="#F96F89" transform="translate(238,136)"/>
<path d="M0 0 C-1.66666667 1.66666667 -3.33333333 3.33333333 -5 5 C-8.625 4.625 -8.625 4.625 -12 4 C-4.75 -1.69642857 -4.75 -1.69642857 0 0 Z " fill="#F96270" transform="translate(219,118)"/>
<path d="M0 0 C0.66 0 1.32 0 2 0 C1.32116957 3.11547441 0.25893098 5.85137721 -1.0625 8.75 C-1.60583984 9.94882813 -1.60583984 9.94882813 -2.16015625 11.171875 C-2.57587891 12.07679688 -2.57587891 12.07679688 -3 13 C-3.66 12.67 -4.32 12.34 -5 12 C-5 11.34 -5 10.68 -5 10 C-4.34 10 -3.68 10 -3 10 C-2.67 7.69 -2.34 5.38 -2 3 C-1.34 3 -0.68 3 0 3 C0 2.01 0 1.02 0 0 Z " fill="#F96377" transform="translate(188,165)"/>
<path d="M0 0 C3.31529273 0.98562757 4.74949379 1.65447419 6.8125 4.5 C8 7 8 7 8 9 C6 9 6 9 4.4921875 7.5390625 C3.95851563 6.90742188 3.42484375 6.27578125 2.875 5.625 C2.06675781 4.68527344 2.06675781 4.68527344 1.2421875 3.7265625 C0 2 0 2 0 0 Z " fill="#F53893" transform="translate(292,290)"/>
<path d="M0 0 C0.66 0.99 1.32 1.98 2 3 C0.84826645 5.46800047 -0.04783565 7.04783565 -2 9 C-2.66 9 -3.32 9 -4 9 C-2.94124926 5.59687262 -1.99097846 2.98646769 0 0 Z " fill="#FA6976" transform="translate(170,156)"/>
<path d="M0 0 C0 0.99 0 1.98 0 3 C-0.66 3 -1.32 3 -2 3 C-2 3.66 -2 4.32 -2 5 C-4 6.625 -4 6.625 -6 8 C-6.36458333 3.50347222 -6.36458333 3.50347222 -4.6875 1.1875 C-3 0 -3 0 0 0 Z " fill="#F43C9E" transform="translate(326,305)"/>
<path d="M0 0 C0.99 0.33 1.98 0.66 3 1 C3.73046875 3.06640625 3.73046875 3.06640625 4.1875 5.5625 C4.34605469 6.38878906 4.50460938 7.21507812 4.66796875 8.06640625 C4.77753906 8.70449219 4.88710937 9.34257812 5 10 C1.91910327 7.22719294 0.31224548 4.93673644 -1 1 C-0.67 0.67 -0.34 0.34 0 0 Z " fill="#F96882" transform="translate(168,215)"/>
<path d="M0 0 C-1.44253657 3.36591866 -3.33264727 5.51047079 -6 8 C-6.36458333 3.50347222 -6.36458333 3.50347222 -4.6875 1.1875 C-3 0 -3 0 0 0 Z " fill="#F549A6" transform="translate(407,224)"/>
<path d="M0 0 C2.93200474 2.85276137 5.64315404 5.65079784 8 9 C6.35 8.67 4.7 8.34 3 8 C3 7.01 3 6.02 3 5 C1.68 4.67 0.36 4.34 -1 4 C-0.67 2.68 -0.34 1.36 0 0 Z " fill="#F95E82" transform="translate(188,209)"/>
<path d="M0 0 C0.66 0.33 1.32 0.66 2 1 C1.26418258 2.1549921 0.51069961 3.29874185 -0.25 4.4375 C-0.66765625 5.07558594 -1.0853125 5.71367187 -1.515625 6.37109375 C-3.27248877 8.29902057 -4.46089803 8.61479436 -7 9 C-6.67 8.01 -6.34 7.02 -6 6 C-5.34 6 -4.68 6 -4 6 C-3.71125 5.38125 -3.4225 4.7625 -3.125 4.125 C-2 2 -2 2 0 0 Z " fill="#FB7E87" transform="translate(192,132)"/>
<path d="M0 0 C2.31 1.98 4.62 3.96 7 6 C6.67 6.66 6.34 7.32 6 8 C2.83884224 6.63016497 2.0072908 6.0109362 0 3 C0 2.01 0 1.02 0 0 Z " fill="#F3439C" transform="translate(288,310)"/>
<path d="M0 0 C2.31 1.98 4.62 3.96 7 6 C3 7 3 7 1 6 C0.375 2.9375 0.375 2.9375 0 0 Z " fill="#F64795" transform="translate(264,286)"/>
<path d="M0 0 C0.66 0.33 1.32 0.66 2 1 C-0.10618315 3.94865641 -2.39391727 6.4837822 -5 9 C-5 5 -5 5 -2.5 2.25 C-1.675 1.5075 -0.85 0.765 0 0 Z " fill="#F97DAC" transform="translate(266,252)"/>
<path d="M0 0 C2 3 2 3 3 6 C2.34 6 1.68 6 1 6 C0.67 6.99 0.34 7.98 0 9 C-0.66 9 -1.32 9 -2 9 C-1.51421457 5.87709365 -1.0013988 3.00419641 0 0 Z " fill="#FA5C6B" transform="translate(165,165)"/>
<path d="M0 0 C1.32 0.33 2.64 0.66 4 1 C4.33 2.32 4.66 3.64 5 5 C3.35 5 1.7 5 0 5 C0 3.35 0 1.7 0 0 Z " fill="#F5368D" transform="translate(401,150)"/>
<path d="M0 0 C1.32 0.66 2.64 1.32 4 2 C1.36 3.98 -1.28 5.96 -4 8 C-4 6.68 -4 5.36 -4 4 C-3.01 4 -2.02 4 -1 4 C-0.67 2.68 -0.34 1.36 0 0 Z " fill="#F43098" transform="translate(380,248)"/>
<path d="M0 0 C0.66 0 1.32 0 2 0 C1.6875 1.875 1.6875 1.875 1 4 C0.01 4.66 -0.98 5.32 -2 6 C-2.99 5.01 -3.98 4.02 -5 3 C-4.01 3 -3.02 3 -2 3 C-1.67 2.34 -1.34 1.68 -1 1 C-0.67 0.67 -0.34 0.34 0 0 Z " fill="#F560AF" transform="translate(292,337)"/>
<path d="M0 0 C0.66 0.33 1.32 0.66 2 1 C0.8125 3.4375 0.8125 3.4375 -1 6 C-3.6875 6.8125 -3.6875 6.8125 -6 7 C-6 6.34 -6 5.68 -6 5 C-4.04072937 3.2856382 -2.04119788 1.61594832 0 0 Z " fill="#FA6874" transform="translate(200,125)"/>
<path d="M0 0 C0.66 0 1.32 0 2 0 C0.8141763 3.37503669 -0.27573689 5.64722731 -3 8 C-3 6.35 -3 4.7 -3 3 C-2.01 2.67 -1.02 2.34 0 2 C0 1.34 0 0.68 0 0 Z " fill="#F549A6" transform="translate(410,216)"/>
<path d="M0 0 C0.66 0 1.32 0 2 0 C2.6875 1.75 2.6875 1.75 3 4 C1.6875 6.25 1.6875 6.25 0 8 C-0.66 8 -1.32 8 -2 8 C-1.34 5.36 -0.68 2.72 0 0 Z " fill="#F73F75" transform="translate(271,183)"/>
<path d="M0 0 C1.32 0.33 2.64 0.66 4 1 C4.33 2.98 4.66 4.96 5 7 C1.18461538 4.53846154 1.18461538 4.53846154 0.25 1.8125 C0.1675 1.214375 0.085 0.61625 0 0 Z " fill="#F43B9C" transform="translate(282,333)"/>
<path d="M0 0 C0.99 0.33 1.98 0.66 3 1 C3 1.99 3 2.98 3 4 C1 5.6875 1 5.6875 -1 7 C-1.04254356 5.00045254 -1.04080783 2.99958364 -1 1 C-0.67 0.67 -0.34 0.34 0 0 Z " fill="#F4369C" transform="translate(392,235)"/>
<path d="M0 0 C0.33 0.66 0.66 1.32 1 2 C1.99 2.33 2.98 2.66 4 3 C3.34 4.32 2.68 5.64 2 7 C0.4375 5.75 0.4375 5.75 -1 4 C-0.6875 1.8125 -0.6875 1.8125 0 0 Z " fill="#F7547D" transform="translate(186,235)"/>
<path d="M0 0 C3.73639216 1.24546405 4.18756513 2.63404953 6 6 C4.35 6 2.7 6 1 6 C0.67 4.02 0.34 2.04 0 0 Z " fill="#F01381" transform="translate(299,294)"/>
<path d="M0 0 C3.465 1.98 3.465 1.98 7 4 C7 4.99 7 5.98 7 7 C6.21625 6.525625 5.4325 6.05125 4.625 5.5625 C3.11051322 4.66101977 1.5764103 3.78820515 0 3 C0 2.01 0 1.02 0 0 Z " fill="#F76FA9" transform="translate(387,137)"/>
</svg>
